<?xml version="1.0" encoding="UTF-8" standalone="no"?>
<!DOCTYPE svg PUBLIC "-//W3C//DTD SVG 1.1//EN"
 "http://www.w3.org/Graphics/SVG/1.1/DTD/svg11.dtd">
<!-- Generated by graphviz version 2.40.1 (20161225.0304)
 -->
<!-- Title: dependencies Pages: 1 -->
<svg width="1361pt" height="211pt"
 viewBox="0.00 0.00 1361.00 211.00" xmlns="http://www.w3.org/2000/svg" xmlns:xlink="http://www.w3.org/1999/xlink">
<g id="graph0" class="graph" transform="scale(1 1) rotate(0) translate(4 207)">
<title>dependencies</title>
<polygon fill="#ffffff" stroke="transparent" points="-4,4 -4,-207 1357,-207 1357,4 -4,4"/>
<text text-anchor="start" x="655.5091" y="-42.4" font-family="sans-serif" font-weight="bold" font-size="14.00" fill="#000000">Legend</text>
<polygon fill="#ffffb3" stroke="transparent" points="442.5,-10 442.5,-30 462.5,-30 462.5,-10 442.5,-10"/>
<text text-anchor="start" x="466.129" y="-15.4" font-family="sans-serif" font-size="14.00" fill="#000000"> &#160;Declarations</text>
<polygon fill="#8dd3c7" stroke="transparent" points="555.5,-10 555.5,-30 575.5,-30 575.5,-10 555.5,-10"/>
<text text-anchor="start" x="579.2251" y="-15.4" font-family="sans-serif" font-size="14.00" fill="#000000"> &#160;Module</text>
<polygon fill="#80b1d3" stroke="transparent" points="641.5,-10 641.5,-30 661.5,-30 661.5,-10 641.5,-10"/>
<text text-anchor="start" x="665.2812" y="-15.4" font-family="sans-serif" font-size="14.00" fill="#000000"> &#160;Bootstrap</text>
<polygon fill="#fdb462" stroke="transparent" points="738.5,-10 738.5,-30 758.5,-30 758.5,-10 738.5,-10"/>
<text text-anchor="start" x="762.1732" y="-15.4" font-family="sans-serif" font-size="14.00" fill="#000000"> &#160;Providers</text>
<polygon fill="#fb8072" stroke="transparent" points="834.5,-10 834.5,-30 854.5,-30 854.5,-10 834.5,-10"/>
<text text-anchor="start" x="858.2258" y="-15.4" font-family="sans-serif" font-size="14.00" fill="#000000"> &#160;Exports</text>
<g id="clust1" class="cluster">
<title>cluster_PrestationsModule</title>
<polygon fill="none" stroke="#000000" stroke-dasharray="1,5" points="8,-70 8,-195 1345,-195 1345,-70 8,-70"/>
</g>
<g id="clust2" class="cluster">
<title>cluster_PrestationsModule_declarations</title>
<polygon fill="none" stroke="#000000" points="322,-78 322,-130 1337,-130 1337,-78 322,-78"/>
</g>
<g id="clust9" class="cluster">
<title>cluster_PrestationsModule_imports</title>
<polygon fill="none" stroke="#000000" points="16,-78 16,-130 314,-130 314,-78 16,-78"/>
</g>
<!-- AddPrestationComponent -->
<g id="node1" class="node">
<title>AddPrestationComponent</title>
<polygon fill="#ffffb3" stroke="#000000" points="1328.9284,-122 1167.0716,-122 1167.0716,-86 1328.9284,-86 1328.9284,-122"/>
<text text-anchor="middle" x="1248" y="-99.8" font-family="Times,serif" font-size="14.00" fill="#000000">AddPrestationComponent</text>
</g>
<!-- PrestationsModule -->
<g id="node7" class="node">
<title>PrestationsModule</title>
<polygon fill="#8dd3c7" stroke="#000000" points="738.4832,-187 735.4832,-191 714.4832,-191 711.4832,-187 617.5168,-187 617.5168,-151 738.4832,-151 738.4832,-187"/>
<text text-anchor="middle" x="678" y="-164.8" font-family="Times,serif" font-size="14.00" fill="#000000">PrestationsModule</text>
</g>
<!-- AddPrestationComponent&#45;&gt;PrestationsModule -->
<g id="edge1" class="edge">
<title>AddPrestationComponent&#45;&gt;PrestationsModule</title>
<path fill="none" stroke="#000000" d="M1248,-122.2921C1248,-144.2057 1248,-178 1248,-178 1248,-178 748.7299,-178 748.7299,-178"/>
<polygon fill="#000000" stroke="#000000" points="748.73,-174.5001 738.7299,-178 748.7299,-181.5001 748.73,-174.5001"/>
</g>
<!-- FormComponent -->
<g id="node2" class="node">
<title>FormComponent</title>
<polygon fill="#ffffb3" stroke="#000000" points="1148.6667,-122 1037.3333,-122 1037.3333,-86 1148.6667,-86 1148.6667,-122"/>
<text text-anchor="middle" x="1093" y="-99.8" font-family="Times,serif" font-size="14.00" fill="#000000">FormComponent</text>
</g>
<!-- FormComponent&#45;&gt;PrestationsModule -->
<g id="edge2" class="edge">
<title>FormComponent&#45;&gt;PrestationsModule</title>
<path fill="none" stroke="#000000" d="M1093,-122.1061C1093,-141.3391 1093,-169 1093,-169 1093,-169 748.789,-169 748.789,-169"/>
<polygon fill="#000000" stroke="#000000" points="748.789,-165.5001 738.789,-169 748.789,-172.5001 748.789,-165.5001"/>
</g>
<!-- FormReactiveComponent -->
<g id="node3" class="node">
<title>FormReactiveComponent</title>
<polygon fill="#ffffb3" stroke="#000000" points="1019.1428,-122 858.8572,-122 858.8572,-86 1019.1428,-86 1019.1428,-122"/>
<text text-anchor="middle" x="939" y="-99.8" font-family="Times,serif" font-size="14.00" fill="#000000">FormReactiveComponent</text>
</g>
<!-- FormReactiveComponent&#45;&gt;PrestationsModule -->
<g id="edge3" class="edge">
<title>FormReactiveComponent&#45;&gt;PrestationsModule</title>
<path fill="none" stroke="#000000" d="M939,-122.027C939,-138.3976 939,-160 939,-160 939,-160 748.5347,-160 748.5347,-160"/>
<polygon fill="#000000" stroke="#000000" points="748.5347,-156.5001 738.5347,-160 748.5346,-163.5001 748.5347,-156.5001"/>
</g>
<!-- ListPrestationComponent -->
<g id="node4" class="node">
<title>ListPrestationComponent</title>
<polygon fill="#ffffb3" stroke="#000000" points="840.5996,-122 681.4004,-122 681.4004,-86 840.5996,-86 840.5996,-122"/>
<text text-anchor="middle" x="761" y="-99.8" font-family="Times,serif" font-size="14.00" fill="#000000">ListPrestationComponent</text>
</g>
<!-- ListPrestationComponent&#45;&gt;PrestationsModule -->
<g id="edge4" class="edge">
<title>ListPrestationComponent&#45;&gt;PrestationsModule</title>
<path fill="none" stroke="#000000" d="M709.9709,-122.1061C709.9709,-122.1061 709.9709,-140.991 709.9709,-140.991"/>
<polygon fill="#000000" stroke="#000000" points="706.471,-140.9909 709.9709,-150.991 713.471,-140.991 706.471,-140.9909"/>
</g>
<!-- PrestationComponent -->
<g id="node5" class="node">
<title>PrestationComponent</title>
<polygon fill="#ffffb3" stroke="#000000" points="663.8216,-122 526.1784,-122 526.1784,-86 663.8216,-86 663.8216,-122"/>
<text text-anchor="middle" x="595" y="-99.8" font-family="Times,serif" font-size="14.00" fill="#000000">PrestationComponent</text>
</g>
<!-- PrestationComponent&#45;&gt;PrestationsModule -->
<g id="edge5" class="edge">
<title>PrestationComponent&#45;&gt;PrestationsModule</title>
<path fill="none" stroke="#000000" d="M640.5845,-122.1061C640.5845,-122.1061 640.5845,-140.991 640.5845,-140.991"/>
<polygon fill="#000000" stroke="#000000" points="637.0846,-140.9909 640.5845,-150.991 644.0846,-140.991 637.0846,-140.9909"/>
</g>
<!-- UpdatePrestationComponent -->
<g id="node6" class="node">
<title>UpdatePrestationComponent</title>
<polygon fill="#ffffb3" stroke="#000000" points="507.7478,-122 330.2522,-122 330.2522,-86 507.7478,-86 507.7478,-122"/>
<text text-anchor="middle" x="419" y="-99.8" font-family="Times,serif" font-size="14.00" fill="#000000">UpdatePrestationComponent</text>
</g>
<!-- UpdatePrestationComponent&#45;&gt;PrestationsModule -->
<g id="edge6" class="edge">
<title>UpdatePrestationComponent&#45;&gt;PrestationsModule</title>
<path fill="none" stroke="#000000" d="M419,-122.027C419,-138.3976 419,-160 419,-160 419,-160 607.276,-160 607.276,-160"/>
<polygon fill="#000000" stroke="#000000" points="607.276,-163.5001 617.276,-160 607.276,-156.5001 607.276,-163.5001"/>
</g>
<!-- PrestationsRoutingModule -->
<g id="node8" class="node">
<title>PrestationsRoutingModule</title>
<polygon fill="#8dd3c7" stroke="#000000" points="306.101,-122 303.101,-126 282.101,-126 279.101,-122 139.899,-122 139.899,-86 306.101,-86 306.101,-122"/>
<text text-anchor="middle" x="223" y="-99.8" font-family="Times,serif" font-size="14.00" fill="#000000">PrestationsRoutingModule</text>
</g>
<!-- PrestationsRoutingModule&#45;&gt;PrestationsModule -->
<g id="edge7" class="edge">
<title>PrestationsRoutingModule&#45;&gt;PrestationsModule</title>
<path fill="none" stroke="#000000" d="M223,-122.1061C223,-141.3391 223,-169 223,-169 223,-169 607.1088,-169 607.1088,-169"/>
<polygon fill="#000000" stroke="#000000" points="607.1088,-172.5001 617.1088,-169 607.1088,-165.5001 607.1088,-172.5001"/>
</g>
<!-- SharedModule -->
<g id="node9" class="node">
<title>SharedModule</title>
<polygon fill="#8dd3c7" stroke="#000000" points="122.4231,-122 119.4231,-126 98.4231,-126 95.4231,-122 23.5769,-122 23.5769,-86 122.4231,-86 122.4231,-122"/>
<text text-anchor="middle" x="73" y="-99.8" font-family="Times,serif" font-size="14.00" fill="#000000">SharedModule</text>
</g>
<!-- SharedModule&#45;&gt;PrestationsModule -->
<g id="edge8" class="edge">
<title>SharedModule&#45;&gt;PrestationsModule</title>
<path fill="none" stroke="#000000" d="M73,-122.2921C73,-144.2057 73,-178 73,-178 73,-178 607.4996,-178 607.4996,-178"/>
<polygon fill="#000000" stroke="#000000" points="607.4996,-181.5001 617.4996,-178 607.4996,-174.5001 607.4996,-181.5001"/>
</g>
</g>
</svg>
